<svg width="32" height="32" viewBox="0 0 32 32" fill="none" xmlns="http://www.w3.org/2000/svg">
<g clip-path="url(#clip0_2341_18)">
<circle cx="16" cy="16" r="16" fill="#085996"/>
<path d="M16 4C20.7393 4 24.835 6.74831 26.7852 10.7373L21.9688 12.3428C20.7376 10.3377 18.5253 9 16 9C12.134 9 9 12.134 9 16C9 19.866 12.134 23 16 23C18.1887 23 20.1422 21.995 21.4258 20.4219L26.6572 21.5117C24.6603 25.365 20.6396 28 16 28C9.37258 28 4 22.6274 4 16C4 9.37258 9.37258 4 16 4Z" fill="white"/>
</g>
<defs>
<clipPath id="clip0_2341_18">
<rect width="32" height="32" fill="white"/>
</clipPath>
</defs>
</svg>
