<svg width="32" height="32" viewBox="0 0 32 32" fill="none" xmlns="http://www.w3.org/2000/svg">
<path fill-rule="evenodd" clip-rule="evenodd" d="M0 11.2C0 7.27963 0 5.31945 0.762954 3.82207C1.43407 2.50493 2.50493 1.43407 3.82207 0.762954C5.31945 0 7.27963 0 11.2 0H20.8C24.7204 0 26.6806 0 28.1779 0.762954C29.4951 1.43407 30.5659 2.50493 31.237 3.82207C32 5.31945 32 7.27963 32 11.2V20.8C32 24.7204 32 26.6806 31.237 28.1779C30.5659 29.4951 29.4951 30.5659 28.1779 31.237C26.6806 32 24.7204 32 20.8 32H11.2C7.27963 32 5.31945 32 3.82207 31.237C2.50493 30.5659 1.43407 29.4951 0.762954 28.1779C0 26.6806 0 24.7204 0 20.8V11.2ZM18.527 8.53681C17.7652 8.53681 17.1583 7.94316 16.7654 7.2905V7.2905C16.5409 6.90049 16.2601 6.56136 15.9233 6.27309C15.5865 5.98483 15.2015 5.76439 14.7684 5.61178C14.3514 5.44221 13.9103 5.35743 13.4451 5.35743C12.595 5.35743 11.8732 5.53547 11.2797 5.89157C10.6862 6.2307 10.205 6.69701 9.83609 7.2905C9.46717 7.86702 9.19449 8.52834 9.01805 9.27443C8.85765 10.0205 8.77744 10.7921 8.77744 11.589C8.77744 12.3521 8.85765 13.0982 9.01805 13.8273C9.19449 14.5395 9.46717 15.1838 9.83609 15.7604C10.205 16.3369 10.6862 16.8032 11.2797 17.1593C11.8732 17.4984 12.595 17.668 13.4451 17.668C14.6 17.668 15.4982 17.295 16.1399 16.5489C16.4819 16.1608 16.7545 15.7086 16.9577 15.1921C17.301 14.3196 18.0492 13.5984 18.9868 13.5984V13.5984C20.0701 13.5984 20.9437 14.5354 20.6473 15.5773C20.5385 15.9597 20.4075 16.3259 20.2541 16.676C19.8531 17.5917 19.3238 18.3717 18.6662 19.0161C18.0085 19.6604 17.2386 20.1522 16.3564 20.4913C15.4742 20.8304 14.5038 21 13.4451 21C12.1298 21 10.9429 20.7626 9.88421 20.2878C8.8416 19.7961 7.9594 19.1263 7.23759 18.2784C6.51579 17.4306 5.96241 16.4386 5.57744 15.3025C5.19248 14.1495 5 12.9116 5 11.589C5 10.2325 5.19248 8.97769 5.57744 7.82463C5.96241 6.65462 6.51579 5.63721 7.23759 4.77242C7.9594 3.90763 8.8416 3.22936 9.88421 2.73762C10.9429 2.24587 12.1298 2 13.4451 2C14.3915 2 15.2817 2.14413 16.1158 2.4324C16.9659 2.72066 17.7198 3.14458 18.3774 3.70415C19.0511 4.24676 19.6045 4.92503 20.0376 5.73896C20.1737 5.99469 20.2939 6.26215 20.3983 6.54133C20.7824 7.5684 19.8996 8.53681 18.803 8.53681H18.527ZM15.2346 14.5689V14.5689C14.8395 15.2598 14.2071 15.8809 13.4112 15.8809H13.1859C12.0934 15.8809 11.2139 14.9221 11.5645 13.8874C11.6773 13.5547 11.8099 13.2375 11.9624 12.9357C12.3955 12.079 12.9489 11.365 13.6226 10.7938C14.2802 10.2048 15.0341 9.75859 15.8842 9.45515C16.7183 9.15172 17.6085 9 18.5549 9C19.8702 9 21.0571 9.25881 22.1158 9.77644C23.1584 10.2941 24.0406 11.008 24.7624 11.9183C25.4842 12.8286 26.0376 13.8996 26.4226 15.1312C26.8075 16.3449 27 17.6658 27 19.0937C27 20.4859 26.8075 21.7889 26.4226 23.0027C26.0376 24.1986 25.4842 25.2427 24.7624 26.1352C24.0406 27.0277 23.1584 27.7327 22.1158 28.2503C21.0571 28.7501 19.8702 29 18.5549 29C17.4962 29 16.5258 28.8215 15.6436 28.4645C14.7614 28.1075 13.9915 27.5899 13.3338 26.9116C12.6762 26.2334 12.1469 25.4123 11.7459 24.4485C11.5789 24.0471 11.4383 23.6256 11.3242 23.184C11.054 22.1386 11.9242 21.2088 13.004 21.2088V21.2088C13.9454 21.2088 14.6989 21.9326 15.0174 22.8185C15.223 23.3905 15.5039 23.8892 15.8601 24.3146C16.5018 25.1 17.4 25.4926 18.5549 25.4926C19.405 25.4926 20.1268 25.3141 20.7203 24.9572C21.3138 24.5823 21.795 24.0915 22.1639 23.4846C22.5328 22.8777 22.8055 22.1995 22.982 21.4498C23.1424 20.6823 23.2226 19.8969 23.2226 19.0937C23.2226 18.2548 23.1424 17.4427 22.982 16.6573C22.8055 15.8719 22.5328 15.1758 22.1639 14.5689C21.795 13.9442 21.3138 13.4534 20.7203 13.0964C20.1268 12.7216 19.405 12.5341 18.5549 12.5341C18.0897 12.5341 17.6486 12.6234 17.2316 12.8019C16.7985 12.9625 16.4135 13.1946 16.0767 13.498C15.7398 13.8014 15.4591 14.1584 15.2346 14.5689Z" fill="black"/>
</svg>
