<svg width="32" height="32" viewBox="0 0 32 32" fill="none" xmlns="http://www.w3.org/2000/svg">
<g clip-path="url(#clip0_1310_3)">
<path d="M22.3613 12.0977L21.5547 12.6309C21.0625 11.9017 20.4199 11.3275 19.627 10.9082C18.8431 10.4798 17.9909 10.2656 17.0703 10.2656C15.5755 10.2656 14.2995 10.7943 13.2422 11.8516C12.1849 12.9089 11.6562 14.1849 11.6562 15.6797C11.6562 17.1745 12.1849 18.4505 13.2422 19.5078C14.2995 20.5651 15.5755 21.0938 17.0703 21.0938C17.9909 21.0938 18.8431 20.8796 19.627 20.4512C20.4199 20.0228 21.0625 19.444 21.5547 18.7148L22.3477 19.2891C21.7643 20.1458 21.0078 20.8249 20.0781 21.3262C19.1484 21.8275 18.1458 22.0781 17.0703 22.0781C16.2044 22.0781 15.375 21.9095 14.582 21.5723C13.7982 21.235 13.1191 20.7793 12.5449 20.2051C11.9707 19.6309 11.515 18.9518 11.1777 18.168C10.8405 17.375 10.6719 16.5456 10.6719 15.6797C10.6719 14.8138 10.8405 13.9889 11.1777 13.2051C11.515 12.4121 11.9707 11.7285 12.5449 11.1543C13.1191 10.5801 13.7982 10.1243 14.582 9.78711C15.375 9.44987 16.2044 9.28125 17.0703 9.28125C18.1549 9.28125 19.1621 9.53646 20.0918 10.0469C21.0215 10.5482 21.778 11.2318 22.3613 12.0977ZM23.9883 10.9766L23.168 11.5098C22.4935 10.5254 21.6185 9.74609 20.543 9.17188C19.4766 8.58854 18.319 8.29688 17.0703 8.29688C15.7305 8.29688 14.4954 8.62956 13.3652 9.29492C12.235 9.95117 11.3372 10.8444 10.6719 11.9746C10.0156 13.1048 9.6875 14.3398 9.6875 15.6797C9.6875 17.0195 10.0156 18.2546 10.6719 19.3848C11.3372 20.515 12.235 21.4128 13.3652 22.0781C14.4954 22.7344 15.7305 23.0625 17.0703 23.0625C18.319 23.0625 19.4811 22.7708 20.5566 22.1875C21.6322 21.6042 22.5072 20.8158 23.1816 19.8223L23.9883 20.3828C23.2227 21.513 22.2292 22.4062 21.0078 23.0625C19.7956 23.7188 18.4831 24.0469 17.0703 24.0469C15.5573 24.0469 14.1582 23.6732 12.873 22.9258C11.5879 22.1784 10.5716 21.1621 9.82422 19.877C9.07682 18.5918 8.70312 17.1927 8.70312 15.6797C8.70312 14.1667 9.07682 12.7676 9.82422 11.4824C10.5716 10.1973 11.5879 9.18099 12.873 8.43359C14.1582 7.6862 15.5573 7.3125 17.0703 7.3125C18.4831 7.3125 19.7956 7.64062 21.0078 8.29688C22.2292 8.95312 23.2227 9.84635 23.9883 10.9766ZM25.6289 9.88281L24.8086 10.416C23.9518 9.1582 22.8398 8.16471 21.4727 7.43555C20.1146 6.69727 18.6471 6.32812 17.0703 6.32812C15.8034 6.32812 14.5911 6.57422 13.4336 7.06641C12.276 7.55859 11.278 8.22396 10.4395 9.0625C9.61003 9.89193 8.94922 10.8854 8.45703 12.043C7.96484 13.2005 7.71875 14.4128 7.71875 15.6797C7.71875 16.9466 7.96484 18.1589 8.45703 19.3164C8.94922 20.474 9.61003 21.472 10.4395 22.3105C11.278 23.14 12.276 23.8008 13.4336 24.293C14.5911 24.7852 15.8034 25.0312 17.0703 25.0312C18.6562 25.0312 20.1283 24.6621 21.4863 23.9238C22.8444 23.1855 23.9518 22.1875 24.8086 20.9297L25.6016 21.5176C24.6536 22.903 23.4277 24.0013 21.9238 24.8125C20.429 25.6146 18.8112 26.0156 17.0703 26.0156C15.2018 26.0156 13.4746 25.5553 11.8887 24.6348C10.3027 23.7051 9.04492 22.4473 8.11523 20.8613C7.19466 19.2754 6.73438 17.5482 6.73438 15.6797C6.73438 13.8112 7.19466 12.084 8.11523 10.498C9.04492 8.91211 10.3027 7.65885 11.8887 6.73828C13.4746 5.80859 15.2018 5.34375 17.0703 5.34375C18.8203 5.34375 20.4473 5.75391 21.9512 6.57422C23.4551 7.38542 24.681 8.48828 25.6289 9.88281ZM27.2422 8.76172L26.4219 9.29492C25.3828 7.77279 24.0384 6.56966 22.3887 5.68555C20.748 4.80143 18.9753 4.35938 17.0703 4.35938C15.5391 4.35938 14.0716 4.66016 12.668 5.26172C11.2734 5.85417 10.0703 6.65625 9.05859 7.66797C8.04688 8.67969 7.24023 9.88737 6.63867 11.291C6.04622 12.6855 5.75 14.1484 5.75 15.6797C5.75 17.2109 6.04622 18.6784 6.63867 20.082C7.24023 21.4766 8.04688 22.6797 9.05859 23.6914C10.0703 24.7031 11.2734 25.5098 12.668 26.1113C14.0716 26.7038 15.5391 27 17.0703 27C18.9753 27 20.7526 26.5534 22.4023 25.6602C24.0521 24.7669 25.3965 23.5592 26.4355 22.0371L27.2285 22.6387C26.0983 24.2793 24.64 25.5827 22.8535 26.5488C21.0671 27.5059 19.1393 27.9844 17.0703 27.9844C15.4023 27.9844 13.8073 27.6562 12.2852 27C10.7721 26.3529 9.46419 25.4824 8.36133 24.3887C7.26758 23.2858 6.39258 21.9779 5.73633 20.4648C5.08919 18.9427 4.76562 17.3477 4.76562 15.6797C4.76562 14.0117 5.08919 12.4212 5.73633 10.9082C6.39258 9.38607 7.26758 8.07812 8.36133 6.98438C9.46419 5.88151 10.7721 5.00651 12.2852 4.35938C13.8073 3.70312 15.4023 3.375 17.0703 3.375C19.1484 3.375 21.0807 3.85807 22.8672 4.82422C24.6536 5.79036 26.112 7.10286 27.2422 8.76172Z" fill="black"/>
<a href="http://localhost:5173/">
<rect fill="black" fill-opacity="0" y="0.207031" width="23.8574" height="43.5859"/>
</a>
</g>
<defs>
<clipPath id="clip0_1310_3">
<rect width="32" height="32" fill="white"/>
</clipPath>
</defs>
</svg>
