<svg width="32" height="32" viewBox="0 0 32 32" fill="none" xmlns="http://www.w3.org/2000/svg">
<g clip-path="url(#clip0_2341_18)">
<path d="M26.1392 13.2727H20.6108C20.6506 12.8021 20.6241 12.3778 20.5312 12C20.4384 11.6222 20.2794 11.2973 20.054 11.0256C19.8286 10.7472 19.5336 10.535 19.169 10.3892C18.8045 10.2434 18.3703 10.1705 17.8665 10.1705C16.8987 10.1705 16.0336 10.4124 15.2713 10.8963C14.509 11.3736 13.8759 12.0597 13.3722 12.9545C12.8684 13.8428 12.5104 14.9034 12.2983 16.1364C12.1127 17.3295 12.1061 18.3205 12.2784 19.1094C12.4574 19.8982 12.8054 20.4882 13.3224 20.8793C13.8461 21.2704 14.5256 21.4659 15.3608 21.4659C15.9176 21.4659 16.428 21.3996 16.892 21.267C17.3627 21.1345 17.7803 20.9455 18.1449 20.7003C18.5161 20.4484 18.831 20.1501 19.0895 19.8054C19.3546 19.4541 19.5568 19.0663 19.696 18.642H25.2642C25.0521 19.5038 24.6742 20.3854 24.1307 21.2869C23.5871 22.1818 22.8845 23.0071 22.0227 23.7628C21.161 24.5118 20.1468 25.1184 18.9801 25.5824C17.8134 26.0464 16.5009 26.2784 15.0426 26.2784C13.1335 26.2784 11.4863 25.8608 10.1009 25.0256C8.72206 24.1903 7.72112 22.9706 7.09801 21.3665C6.48153 19.7623 6.3589 17.8068 6.73011 15.5C7.10133 13.2727 7.83381 11.4067 8.92756 9.90199C10.0213 8.39725 11.3504 7.26373 12.9148 6.50142C14.4792 5.73911 16.143 5.35795 17.9062 5.35795C19.2386 5.35795 20.4318 5.53362 21.4858 5.88494C22.5464 6.23627 23.438 6.75 24.1605 7.42614C24.8897 8.09564 25.4266 8.92093 25.7713 9.90199C26.116 10.883 26.2386 12.0066 26.1392 13.2727Z" fill="#070923"/>
</g>
<defs>
<clipPath id="clip0_2341_18">
<rect width="32" height="32" fill="white"/>
</clipPath>
</defs>
</svg>
